<?xml version="1.0" encoding="UTF-8" standalone="no"?>
<!DOCTYPE svg PUBLIC "-//W3C//DTD SVG 1.1//EN"
 "http://www.w3.org/Graphics/SVG/1.1/DTD/svg11.dtd">
<!-- Generated by graphviz version 14.1.4 (0)
 -->
<!-- Title: AddressTranslator Pages: 1 -->
<svg width="963pt" height="271pt"
 viewBox="14.00 14.00 949.00 257.00" xmlns="http://www.w3.org/2000/svg" xmlns:xlink="http://www.w3.org/1999/xlink">
<g id="graph0" class="graph" transform="scale(1 1) rotate(0) translate(18.4 252.91)">
<title>AddressTranslator</title>
<polygon fill="white" stroke="none" points="-4,4 -4,-238.51 930.28,-238.51 930.28,4 -4,4"/>
<g id="clust1" class="cluster">
<title>cluster_pipeline</title>
<path fill="#fff3e0" stroke="#ff6f00" stroke-width="2" d="M290.28,-8C290.28,-8 655.08,-8 655.08,-8 661.08,-8 667.08,-14 667.08,-20 667.08,-20 667.08,-128 667.08,-128 667.08,-134 661.08,-140 655.08,-140 655.08,-140 290.28,-140 290.28,-140 284.28,-140 278.28,-134 278.28,-128 278.28,-128 278.28,-20 278.28,-20 278.28,-14 284.28,-8 290.28,-8"/>
<text xml:space="preserve" text-anchor="middle" x="333.9" y="-126.5" font-family="Helvetica,sans-Serif" font-size="10.00" fill="#ff6f00">DDR Address Pipeline</text>
</g>
<!-- config_regs -->
<g id="node1" class="node">
<title>config_regs</title>
<path fill="#fff8e1" stroke="#f57f17" stroke-width="1.2" d="M122.28,-234.51C122.28,-234.51 12,-234.51 12,-234.51 6,-234.51 0,-228.51 0,-222.51 0,-222.51 0,-167.49 0,-167.49 0,-161.49 6,-155.49 12,-155.49 12,-155.49 122.28,-155.49 122.28,-155.49 128.28,-155.49 134.28,-161.49 134.28,-167.49 134.28,-167.49 134.28,-222.51 134.28,-222.51 134.28,-228.51 128.28,-234.51 122.28,-234.51"/>
<text xml:space="preserve" text-anchor="middle" x="67.14" y="-219.25" font-family="Helvetica,sans-Serif" font-size="10.00">Config Regs</text>
<text xml:space="preserve" text-anchor="middle" x="67.14" y="-208" font-family="Helvetica,sans-Serif" font-size="10.00">────────────</text>
<text xml:space="preserve" text-anchor="middle" x="67.14" y="-196.75" font-family="Helvetica,sans-Serif" font-size="10.00">addr_map_mode[2:0]</text>
<text xml:space="preserve" text-anchor="middle" x="67.14" y="-185.5" font-family="Helvetica,sans-Serif" font-size="10.00">col_bits</text>
<text xml:space="preserve" text-anchor="middle" x="67.14" y="-174.25" font-family="Helvetica,sans-Serif" font-size="10.00">row_bits</text>
<text xml:space="preserve" text-anchor="middle" x="67.14" y="-163" font-family="Helvetica,sans-Serif" font-size="10.00">bank_bits</text>
</g>
<!-- bit_field_extractor -->
<g id="node3" class="node">
<title>bit_field_extractor</title>
<path fill="#e8f5e9" stroke="#388e3c" stroke-width="1.2" d="M381.48,-114.76C381.48,-114.76 290.28,-114.76 290.28,-114.76 284.28,-114.76 278.28,-108.76 278.28,-102.76 278.28,-102.76 278.28,-25.24 278.28,-25.24 278.28,-19.24 284.28,-13.24 290.28,-13.24 290.28,-13.24 381.48,-13.24 381.48,-13.24 387.48,-13.24 393.48,-19.24 393.48,-25.24 393.48,-25.24 393.48,-102.76 393.48,-102.76 393.48,-108.76 387.48,-114.76 381.48,-114.76"/>
<text xml:space="preserve" text-anchor="middle" x="335.88" y="-99.5" font-family="Helvetica,sans-Serif" font-size="10.00">Bit Field</text>
<text xml:space="preserve" text-anchor="middle" x="335.88" y="-88.25" font-family="Helvetica,sans-Serif" font-size="10.00">Extractor</text>
<text xml:space="preserve" text-anchor="middle" x="335.88" y="-77" font-family="Helvetica,sans-Serif" font-size="10.00">────────</text>
<text xml:space="preserve" text-anchor="middle" x="335.88" y="-65.75" font-family="Helvetica,sans-Serif" font-size="10.00">rank</text>
<text xml:space="preserve" text-anchor="middle" x="335.88" y="-54.5" font-family="Helvetica,sans-Serif" font-size="10.00">bank_group</text>
<text xml:space="preserve" text-anchor="middle" x="335.88" y="-43.25" font-family="Helvetica,sans-Serif" font-size="10.00">bank</text>
<text xml:space="preserve" text-anchor="middle" x="335.88" y="-32" font-family="Helvetica,sans-Serif" font-size="10.00">row</text>
<text xml:space="preserve" text-anchor="middle" x="335.88" y="-20.75" font-family="Helvetica,sans-Serif" font-size="10.00">col</text>
</g>
<!-- config_regs&#45;&gt;bit_field_extractor -->
<g id="edge1" class="edge">
<title>config_regs&#45;&gt;bit_field_extractor</title>
<path fill="none" stroke="#f57f17" d="M67.28,-155.07C67.28,-131.53 67.28,-106.32 67.28,-106.32 67.28,-106.32 266.41,-106.32 266.41,-106.32"/>
<polygon fill="#f57f17" stroke="#f57f17" points="266.41,-109.82 276.41,-106.32 266.41,-102.82 266.41,-109.82"/>
</g>
<!-- input_sigs -->
<g id="node2" class="node">
<title>input_sigs</title>
<path fill="#e0f2f7" stroke="#0277bd" stroke-width="1.2" d="M119.94,-97.88C119.94,-97.88 14.34,-97.88 14.34,-97.88 8.34,-97.88 2.34,-91.88 2.34,-85.88 2.34,-85.88 2.34,-42.12 2.34,-42.12 2.34,-36.12 8.34,-30.12 14.34,-30.12 14.34,-30.12 119.94,-30.12 119.94,-30.12 125.94,-30.12 131.94,-36.12 131.94,-42.12 131.94,-42.12 131.94,-85.88 131.94,-85.88 131.94,-91.88 125.94,-97.88 119.94,-97.88"/>
<text xml:space="preserve" text-anchor="middle" x="67.14" y="-82.62" font-family="Helvetica,sans-Serif" font-size="10.00">Input Signals</text>
<text xml:space="preserve" text-anchor="middle" x="67.14" y="-71.38" font-family="Helvetica,sans-Serif" font-size="10.00">byte_addr[31:0]</text>
<text xml:space="preserve" text-anchor="middle" x="67.14" y="-60.12" font-family="Helvetica,sans-Serif" font-size="10.00">axid[N:0]</text>
<text xml:space="preserve" text-anchor="middle" x="67.14" y="-48.88" font-family="Helvetica,sans-Serif" font-size="10.00">be_mask[7:0]</text>
<text xml:space="preserve" text-anchor="middle" x="67.14" y="-37.62" font-family="Helvetica,sans-Serif" font-size="10.00">tag[T:0]</text>
</g>
<!-- input_sigs&#45;&gt;bit_field_extractor -->
<g id="edge2" class="edge">
<title>input_sigs&#45;&gt;bit_field_extractor</title>
<path fill="none" stroke="#0277bd" d="M132.54,-64C132.54,-64 266.46,-64 266.46,-64"/>
<polygon fill="#0277bd" stroke="#0277bd" points="266.46,-67.5 276.46,-64 266.46,-60.5 266.46,-67.5"/>
</g>
<!-- cmd_builder -->
<g id="node4" class="node">
<title>cmd_builder</title>
<path fill="#f3e5f5" stroke="#6a1b9a" stroke-width="1.2" d="M655.08,-120.38C655.08,-120.38 549.48,-120.38 549.48,-120.38 543.48,-120.38 537.48,-114.38 537.48,-108.38 537.48,-108.38 537.48,-19.62 537.48,-19.62 537.48,-13.62 543.48,-7.62 549.48,-7.62 549.48,-7.62 655.08,-7.62 655.08,-7.62 661.08,-7.62 667.08,-13.62 667.08,-19.62 667.08,-19.62 667.08,-108.38 667.08,-108.38 667.08,-114.38 661.08,-120.38 655.08,-120.38"/>
<text xml:space="preserve" text-anchor="middle" x="602.28" y="-105.12" font-family="Helvetica,sans-Serif" font-size="10.00">CMD Builder</text>
<text xml:space="preserve" text-anchor="middle" x="602.28" y="-93.88" font-family="Helvetica,sans-Serif" font-size="10.00">────────</text>
<text xml:space="preserve" text-anchor="middle" x="602.28" y="-82.62" font-family="Helvetica,sans-Serif" font-size="10.00">{rank,</text>
<text xml:space="preserve" text-anchor="middle" x="602.28" y="-71.38" font-family="Helvetica,sans-Serif" font-size="10.00">bank_group,</text>
<text xml:space="preserve" text-anchor="middle" x="602.28" y="-60.12" font-family="Helvetica,sans-Serif" font-size="10.00">bank,</text>
<text xml:space="preserve" text-anchor="middle" x="602.28" y="-48.88" font-family="Helvetica,sans-Serif" font-size="10.00">row[15:0],</text>
<text xml:space="preserve" text-anchor="middle" x="602.28" y="-37.62" font-family="Helvetica,sans-Serif" font-size="10.00">col[9:0],</text>
<text xml:space="preserve" text-anchor="middle" x="602.28" y="-26.38" font-family="Helvetica,sans-Serif" font-size="10.00">axid, tag,</text>
<text xml:space="preserve" text-anchor="middle" x="602.28" y="-15.12" font-family="Helvetica,sans-Serif" font-size="10.00">be_mask}</text>
</g>
<!-- bit_field_extractor&#45;&gt;cmd_builder -->
<g id="edge3" class="edge">
<title>bit_field_extractor&#45;&gt;cmd_builder</title>
<path fill="none" stroke="#388e3c" d="M394.01,-64C394.01,-64 525.74,-64 525.74,-64"/>
<polygon fill="#388e3c" stroke="#388e3c" points="525.74,-67.5 535.74,-64 525.74,-60.5 525.74,-67.5"/>
<text xml:space="preserve" text-anchor="middle" x="449.38" y="-55.45" font-family="Helvetica,sans-Serif" font-size="9.00">fields</text>
</g>
<!-- cmd_pool -->
<g id="node5" class="node">
<title>cmd_pool</title>
<path fill="#ffe0b2" stroke="#e65100" stroke-width="1.2" d="M914.28,-92.8C914.28,-92.8 823.08,-92.8 823.08,-92.8 817.08,-92.8 811.08,-86.8 811.08,-80.8 811.08,-80.8 811.08,-47.2 811.08,-47.2 811.08,-41.2 817.08,-35.2 823.08,-35.2 823.08,-35.2 914.28,-35.2 914.28,-35.2 920.28,-35.2 926.28,-41.2 926.28,-47.2 926.28,-47.2 926.28,-80.8 926.28,-80.8 926.28,-86.8 920.28,-92.8 914.28,-92.8"/>
<text xml:space="preserve" text-anchor="middle" x="868.68" y="-65.75" font-family="Helvetica,sans-Serif" font-size="10.00">Read/Write</text>
<text xml:space="preserve" text-anchor="middle" x="868.68" y="-54.5" font-family="Helvetica,sans-Serif" font-size="10.00">Cmd Pool</text>
</g>
<!-- cmd_builder&#45;&gt;cmd_pool -->
<g id="edge4" class="edge">
<title>cmd_builder&#45;&gt;cmd_pool</title>
<path fill="none" stroke="#6a1b9a" d="M667.45,-64C667.45,-64 799.02,-64 799.02,-64"/>
<polygon fill="#6a1b9a" stroke="#6a1b9a" points="799.02,-67.5 809.02,-64 799.02,-60.5 799.02,-67.5"/>
<text xml:space="preserve" text-anchor="middle" x="720.11" y="-55.45" font-family="Helvetica,sans-Serif" font-size="9.00">packet</text>
</g>
</g>
</svg>
