<?xml version="1.0" encoding="UTF-8" standalone="no"?>
<!DOCTYPE svg PUBLIC "-//W3C//DTD SVG 1.1//EN"
 "http://www.w3.org/Graphics/SVG/1.1/DTD/svg11.dtd">
<!-- Generated by graphviz version 14.1.5 (0)
 -->
<!-- Title: AXI_Write_Port Pages: 1 -->
<svg width="1508pt" height="208pt"
 viewBox="0.00 0.00 1508.00 208.00" xmlns="http://www.w3.org/2000/svg" xmlns:xlink="http://www.w3.org/1999/xlink">
<g id="graph0" class="graph" transform="scale(1 1) rotate(0) translate(4 203.75)">
<title>AXI_Write_Port</title>
<polygon fill="white" stroke="none" points="-4,4 -4,-203.75 1504,-203.75 1504,4 -4,4"/>
<!-- AW -->
<g id="node1" class="node">
<title>AW</title>
<path fill="none" stroke="black" d="M103.75,-147C103.75,-147 12,-147 12,-147 6,-147 0,-141 0,-135 0,-135 0,-123 0,-123 0,-117 6,-111 12,-111 12,-111 103.75,-111 103.75,-111 109.75,-111 115.75,-117 115.75,-123 115.75,-123 115.75,-135 115.75,-135 115.75,-141 109.75,-147 103.75,-147"/>
<text xml:space="preserve" text-anchor="middle" x="57.88" y="-123.58" font-family="Times,serif" font-size="14.00">AXI AW Channel</text>
</g>
<!-- AW_CAPTURE -->
<g id="node3" class="node">
<title>AW_CAPTURE</title>
<path fill="none" stroke="black" d="M248.5,-148.75C248.5,-148.75 186.75,-148.75 186.75,-148.75 180.75,-148.75 174.75,-142.75 174.75,-136.75 174.75,-136.75 174.75,-121.25 174.75,-121.25 174.75,-115.25 180.75,-109.25 186.75,-109.25 186.75,-109.25 248.5,-109.25 248.5,-109.25 254.5,-109.25 260.5,-115.25 260.5,-121.25 260.5,-121.25 260.5,-136.75 260.5,-136.75 260.5,-142.75 254.5,-148.75 248.5,-148.75"/>
<text xml:space="preserve" text-anchor="middle" x="217.62" y="-131.45" font-family="Times,serif" font-size="14.00">AW Request</text>
<text xml:space="preserve" text-anchor="middle" x="217.62" y="-115.7" font-family="Times,serif" font-size="14.00">Capture</text>
</g>
<!-- AW&#45;&gt;AW_CAPTURE -->
<g id="edge1" class="edge">
<title>AW&#45;&gt;AW_CAPTURE</title>
<path fill="none" stroke="black" d="M116,-129C116,-129 162.81,-129 162.81,-129"/>
<polygon fill="black" stroke="black" points="162.81,-132.5 172.81,-129 162.81,-125.5 162.81,-132.5"/>
</g>
<!-- W -->
<g id="node2" class="node">
<title>W</title>
<path fill="none" stroke="black" d="M702.25,-36C702.25,-36 619.5,-36 619.5,-36 613.5,-36 607.5,-30 607.5,-24 607.5,-24 607.5,-12 607.5,-12 607.5,-6 613.5,0 619.5,0 619.5,0 702.25,0 702.25,0 708.25,0 714.25,-6 714.25,-12 714.25,-12 714.25,-24 714.25,-24 714.25,-30 708.25,-36 702.25,-36"/>
<text xml:space="preserve" text-anchor="middle" x="660.88" y="-12.57" font-family="Times,serif" font-size="14.00">AXI W Channel</text>
</g>
<!-- W_HANDLER -->
<g id="node7" class="node">
<title>W_HANDLER</title>
<path fill="none" stroke="black" d="M885.75,-127.75C885.75,-127.75 850.25,-127.75 850.25,-127.75 844.25,-127.75 838.25,-121.75 838.25,-115.75 838.25,-115.75 838.25,-100.25 838.25,-100.25 838.25,-94.25 844.25,-88.25 850.25,-88.25 850.25,-88.25 885.75,-88.25 885.75,-88.25 891.75,-88.25 897.75,-94.25 897.75,-100.25 897.75,-100.25 897.75,-115.75 897.75,-115.75 897.75,-121.75 891.75,-127.75 885.75,-127.75"/>
<text xml:space="preserve" text-anchor="middle" x="868" y="-110.45" font-family="Times,serif" font-size="14.00">W Data</text>
<text xml:space="preserve" text-anchor="middle" x="868" y="-94.7" font-family="Times,serif" font-size="14.00">Handler</text>
</g>
<!-- W&#45;&gt;W_HANDLER -->
<g id="edge4" class="edge">
<title>W&#45;&gt;W_HANDLER</title>
<path fill="none" stroke="black" d="M705,-36.32C705,-60.15 705,-98.75 705,-98.75 705,-98.75 826.59,-98.75 826.59,-98.75"/>
<polygon fill="black" stroke="black" points="826.59,-102.25 836.59,-98.75 826.59,-95.25 826.59,-102.25"/>
</g>
<!-- VALIDATOR -->
<g id="node4" class="node">
<title>VALIDATOR</title>
<path fill="none" stroke="black" d="M401.5,-148.75C401.5,-148.75 331.5,-148.75 331.5,-148.75 325.5,-148.75 319.5,-142.75 319.5,-136.75 319.5,-136.75 319.5,-121.25 319.5,-121.25 319.5,-115.25 325.5,-109.25 331.5,-109.25 331.5,-109.25 401.5,-109.25 401.5,-109.25 407.5,-109.25 413.5,-115.25 413.5,-121.25 413.5,-121.25 413.5,-136.75 413.5,-136.75 413.5,-142.75 407.5,-148.75 401.5,-148.75"/>
<text xml:space="preserve" text-anchor="middle" x="366.5" y="-131.45" font-family="Times,serif" font-size="14.00">Write Request</text>
<text xml:space="preserve" text-anchor="middle" x="366.5" y="-115.7" font-family="Times,serif" font-size="14.00">Validator</text>
</g>
<!-- AW_CAPTURE&#45;&gt;VALIDATOR -->
<g id="edge2" class="edge">
<title>AW_CAPTURE&#45;&gt;VALIDATOR</title>
<path fill="none" stroke="black" d="M260.69,-129C260.69,-129 307.59,-129 307.59,-129"/>
<polygon fill="black" stroke="black" points="307.59,-132.5 317.59,-129 307.59,-125.5 307.59,-132.5"/>
</g>
<!-- TRACKER -->
<g id="node5" class="node">
<title>TRACKER</title>
<path fill="none" stroke="black" d="M536.5,-148.75C536.5,-148.75 484.5,-148.75 484.5,-148.75 478.5,-148.75 472.5,-142.75 472.5,-136.75 472.5,-136.75 472.5,-121.25 472.5,-121.25 472.5,-115.25 478.5,-109.25 484.5,-109.25 484.5,-109.25 536.5,-109.25 536.5,-109.25 542.5,-109.25 548.5,-115.25 548.5,-121.25 548.5,-121.25 548.5,-136.75 548.5,-136.75 548.5,-142.75 542.5,-148.75 536.5,-148.75"/>
<text xml:space="preserve" text-anchor="middle" x="510.5" y="-131.45" font-family="Times,serif" font-size="14.00">Burst State</text>
<text xml:space="preserve" text-anchor="middle" x="510.5" y="-115.7" font-family="Times,serif" font-size="14.00">Tracker</text>
</g>
<!-- VALIDATOR&#45;&gt;TRACKER -->
<g id="edge3" class="edge">
<title>VALIDATOR&#45;&gt;TRACKER</title>
<path fill="none" stroke="black" d="M413.65,-129C413.65,-129 460.85,-129 460.85,-129"/>
<polygon fill="black" stroke="black" points="460.85,-132.5 470.85,-129 460.85,-125.5 460.85,-132.5"/>
</g>
<!-- ADDR_GEN -->
<g id="node6" class="node">
<title>ADDR_GEN</title>
<path fill="none" stroke="black" d="M683.88,-199.75C683.88,-199.75 637.88,-199.75 637.88,-199.75 631.88,-199.75 625.88,-193.75 625.88,-187.75 625.88,-187.75 625.88,-172.25 625.88,-172.25 625.88,-166.25 631.88,-160.25 637.88,-160.25 637.88,-160.25 683.88,-160.25 683.88,-160.25 689.88,-160.25 695.88,-166.25 695.88,-172.25 695.88,-172.25 695.88,-187.75 695.88,-187.75 695.88,-193.75 689.88,-199.75 683.88,-199.75"/>
<text xml:space="preserve" text-anchor="middle" x="660.88" y="-182.45" font-family="Times,serif" font-size="14.00">Address</text>
<text xml:space="preserve" text-anchor="middle" x="660.88" y="-166.7" font-family="Times,serif" font-size="14.00">Generator</text>
</g>
<!-- TRACKER&#45;&gt;ADDR_GEN -->
<g id="edge5" class="edge">
<title>TRACKER&#45;&gt;ADDR_GEN</title>
<path fill="none" stroke="black" d="M548.71,-138.25C589.71,-138.25 649,-138.25 649,-138.25 649,-138.25 649,-148.59 649,-148.59"/>
<polygon fill="black" stroke="black" points="645.5,-148.59 649,-158.59 652.5,-148.59 645.5,-148.59"/>
</g>
<!-- TRACKER&#45;&gt;W_HANDLER -->
<g id="edge6" class="edge">
<title>TRACKER&#45;&gt;W_HANDLER</title>
<path fill="none" stroke="black" d="M548.76,-115.42C548.76,-115.42 826.72,-115.42 826.72,-115.42"/>
<polygon fill="black" stroke="black" points="826.72,-118.92 836.72,-115.42 826.72,-111.92 826.72,-118.92"/>
<text xml:space="preserve" text-anchor="middle" x="660.88" y="-110.45" font-family="Times,serif" font-size="14.00">txn context</text>
</g>
<!-- ADDR_GEN&#45;&gt;W_HANDLER -->
<g id="edge7" class="edge">
<title>ADDR_GEN&#45;&gt;W_HANDLER</title>
<path fill="none" stroke="black" d="M673,-159.9C673,-143 673,-121.58 673,-121.58 673,-121.58 826.45,-121.58 826.45,-121.58"/>
<polygon fill="black" stroke="black" points="826.45,-125.08 836.45,-121.58 826.45,-118.08 826.45,-125.08"/>
<text xml:space="preserve" text-anchor="middle" x="776.25" y="-176.45" font-family="Times,serif" font-size="14.00">current addr</text>
</g>
<!-- SPLITTER -->
<g id="node8" class="node">
<title>SPLITTER</title>
<path fill="none" stroke="black" d="M1000.5,-127.75C1000.5,-127.75 968.75,-127.75 968.75,-127.75 962.75,-127.75 956.75,-121.75 956.75,-115.75 956.75,-115.75 956.75,-100.25 956.75,-100.25 956.75,-94.25 962.75,-88.25 968.75,-88.25 968.75,-88.25 1000.5,-88.25 1000.5,-88.25 1006.5,-88.25 1012.5,-94.25 1012.5,-100.25 1012.5,-100.25 1012.5,-115.75 1012.5,-115.75 1012.5,-121.75 1006.5,-127.75 1000.5,-127.75"/>
<text xml:space="preserve" text-anchor="middle" x="984.62" y="-110.45" font-family="Times,serif" font-size="14.00">Burst</text>
<text xml:space="preserve" text-anchor="middle" x="984.62" y="-94.7" font-family="Times,serif" font-size="14.00">Splitter</text>
</g>
<!-- W_HANDLER&#45;&gt;SPLITTER -->
<g id="edge8" class="edge">
<title>W_HANDLER&#45;&gt;SPLITTER</title>
<path fill="none" stroke="black" d="M898.03,-108C898.03,-108 944.78,-108 944.78,-108"/>
<polygon fill="black" stroke="black" points="944.78,-111.5 954.78,-108 944.78,-104.5 944.78,-111.5"/>
</g>
<!-- ROB -->
<g id="node9" class="node">
<title>ROB</title>
<path fill="none" stroke="black" d="M1188,-127.75C1188,-127.75 1083.5,-127.75 1083.5,-127.75 1077.5,-127.75 1071.5,-121.75 1071.5,-115.75 1071.5,-115.75 1071.5,-100.25 1071.5,-100.25 1071.5,-94.25 1077.5,-88.25 1083.5,-88.25 1083.5,-88.25 1188,-88.25 1188,-88.25 1194,-88.25 1200,-94.25 1200,-100.25 1200,-100.25 1200,-115.75 1200,-115.75 1200,-121.75 1194,-127.75 1188,-127.75"/>
<text xml:space="preserve" text-anchor="middle" x="1135.75" y="-110.45" font-family="Times,serif" font-size="14.00">Response Tracking /</text>
<text xml:space="preserve" text-anchor="middle" x="1135.75" y="-94.7" font-family="Times,serif" font-size="14.00">ROB</text>
</g>
<!-- SPLITTER&#45;&gt;ROB -->
<g id="edge9" class="edge">
<title>SPLITTER&#45;&gt;ROB</title>
<path fill="none" stroke="black" d="M1012.7,-108C1012.7,-108 1059.64,-108 1059.64,-108"/>
<polygon fill="black" stroke="black" points="1059.64,-111.5 1069.64,-108 1059.64,-104.5 1059.64,-111.5"/>
</g>
<!-- B_GEN -->
<g id="node10" class="node">
<title>B_GEN</title>
<path fill="none" stroke="black" d="M1326.75,-127.75C1326.75,-127.75 1271,-127.75 1271,-127.75 1265,-127.75 1259,-121.75 1259,-115.75 1259,-115.75 1259,-100.25 1259,-100.25 1259,-94.25 1265,-88.25 1271,-88.25 1271,-88.25 1326.75,-88.25 1326.75,-88.25 1332.75,-88.25 1338.75,-94.25 1338.75,-100.25 1338.75,-100.25 1338.75,-115.75 1338.75,-115.75 1338.75,-121.75 1332.75,-127.75 1326.75,-127.75"/>
<text xml:space="preserve" text-anchor="middle" x="1298.88" y="-110.45" font-family="Times,serif" font-size="14.00">B Response</text>
<text xml:space="preserve" text-anchor="middle" x="1298.88" y="-94.7" font-family="Times,serif" font-size="14.00">Generator</text>
</g>
<!-- ROB&#45;&gt;B_GEN -->
<g id="edge10" class="edge">
<title>ROB&#45;&gt;B_GEN</title>
<path fill="none" stroke="black" d="M1200.22,-108C1200.22,-108 1247.29,-108 1247.29,-108"/>
<polygon fill="black" stroke="black" points="1247.29,-111.5 1257.29,-108 1247.29,-104.5 1247.29,-111.5"/>
</g>
<!-- B -->
<g id="node11" class="node">
<title>B</title>
<path fill="none" stroke="black" d="M1488,-126C1488,-126 1409.75,-126 1409.75,-126 1403.75,-126 1397.75,-120 1397.75,-114 1397.75,-114 1397.75,-102 1397.75,-102 1397.75,-96 1403.75,-90 1409.75,-90 1409.75,-90 1488,-90 1488,-90 1494,-90 1500,-96 1500,-102 1500,-102 1500,-114 1500,-114 1500,-120 1494,-126 1488,-126"/>
<text xml:space="preserve" text-anchor="middle" x="1448.88" y="-102.58" font-family="Times,serif" font-size="14.00">AXI B Channel</text>
</g>
<!-- B_GEN&#45;&gt;B -->
<g id="edge11" class="edge">
<title>B_GEN&#45;&gt;B</title>
<path fill="none" stroke="black" d="M1339.07,-108C1339.07,-108 1385.74,-108 1385.74,-108"/>
<polygon fill="black" stroke="black" points="1385.74,-111.5 1395.74,-108 1385.74,-104.5 1385.74,-111.5"/>
</g>
</g>
</svg>
