<?xml version="1.0" encoding="UTF-8" standalone="no"?>
<!DOCTYPE svg PUBLIC "-//W3C//DTD SVG 1.1//EN"
 "http://www.w3.org/Graphics/SVG/1.1/DTD/svg11.dtd">
<!-- Generated by graphviz version 14.1.4 (0)
 -->
<!-- Title: MergeLogic Pages: 1 -->
<svg width="1425pt" height="431pt"
 viewBox="22.00 22.00 1404.00 409.00" xmlns="http://www.w3.org/2000/svg" xmlns:xlink="http://www.w3.org/1999/xlink">
<g id="graph0" class="graph" transform="scale(1 1) rotate(0) translate(25.6 405.24)">
<title>MergeLogic</title>
<polygon fill="white" stroke="none" points="-4,4 -4,-383.63 1378.15,-383.63 1378.15,4 -4,4"/>
<g id="clust1" class="cluster">
<title>cluster_merge</title>
<path fill="#fff3e0" stroke="#ff6f00" stroke-width="2" d="M290.28,-38.64C290.28,-38.64 1083.87,-38.64 1083.87,-38.64 1089.87,-38.64 1095.87,-44.64 1095.87,-50.64 1095.87,-50.64 1095.87,-359.63 1095.87,-359.63 1095.87,-365.63 1089.87,-371.63 1083.87,-371.63 1083.87,-371.63 290.28,-371.63 290.28,-371.63 284.28,-371.63 278.28,-365.63 278.28,-359.63 278.28,-359.63 278.28,-50.63 278.28,-50.63 278.28,-44.63 284.28,-38.64 290.28,-38.64"/>
<text xml:space="preserve" text-anchor="middle" x="312.9" y="-358.13" font-family="Helvetica,sans-Serif" font-size="10.00" fill="#ff6f00">Merge Logic</text>
</g>
<!-- dram_input -->
<g id="node1" class="node">
<title>dram_input</title>
<path fill="#fff8e1" stroke="#f57f17" stroke-width="1.2" d="M122.28,-140.84C122.28,-140.84 12,-140.84 12,-140.84 6,-140.84 0,-134.84 0,-128.84 0,-128.84 0,-84.44 0,-84.44 0,-78.44 6,-72.44 12,-72.44 12,-72.44 122.28,-72.44 122.28,-72.44 128.28,-72.44 134.28,-78.44 134.28,-84.44 134.28,-84.44 134.28,-128.84 134.28,-128.84 134.28,-134.84 128.28,-140.84 122.28,-140.84"/>
<text xml:space="preserve" text-anchor="middle" x="67.14" y="-119.64" font-family="Helvetica,sans-Serif" font-size="10.00">Read Data Path</text>
<text xml:space="preserve" text-anchor="middle" x="67.14" y="-108.39" font-family="Helvetica,sans-Serif" font-size="10.00">(DRAM)</text>
<text xml:space="preserve" text-anchor="middle" x="67.14" y="-97.14" font-family="Helvetica,sans-Serif" font-size="10.00">────────────</text>
<text xml:space="preserve" text-anchor="middle" x="67.14" y="-85.89" font-family="Helvetica,sans-Serif" font-size="10.00">{tag, data[63:0]}</text>
</g>
<!-- tag_decoder -->
<g id="node2" class="node">
<title>tag_decoder</title>
<path fill="#e8f5e9" stroke="#388e3c" stroke-width="1.2" d="M424.93,-174.27C424.93,-174.27 314.65,-174.27 314.65,-174.27 308.65,-174.27 302.65,-168.27 302.65,-162.27 302.65,-162.27 302.65,-51 302.65,-51 302.65,-45 308.65,-39 314.65,-39 314.65,-39 424.93,-39 424.93,-39 430.93,-39 436.93,-45 436.93,-51 436.93,-51 436.93,-162.27 436.93,-162.27 436.93,-168.27 430.93,-174.27 424.93,-174.27"/>
<text xml:space="preserve" text-anchor="middle" x="369.79" y="-159.01" font-family="Helvetica,sans-Serif" font-size="10.00">Tag Decoder</text>
<text xml:space="preserve" text-anchor="middle" x="369.79" y="-147.76" font-family="Helvetica,sans-Serif" font-size="10.00">────────────</text>
<text xml:space="preserve" text-anchor="middle" x="369.79" y="-136.51" font-family="Helvetica,sans-Serif" font-size="10.00">extracts:</text>
<text xml:space="preserve" text-anchor="middle" x="369.79" y="-125.26" font-family="Helvetica,sans-Serif" font-size="10.00">axid, orig_id</text>
<text xml:space="preserve" text-anchor="middle" x="369.79" y="-114.01" font-family="Helvetica,sans-Serif" font-size="10.00">frag_idx[3:0]</text>
<text xml:space="preserve" text-anchor="middle" x="369.79" y="-102.76" font-family="Helvetica,sans-Serif" font-size="10.00">frag_total[3:0]</text>
<text xml:space="preserve" text-anchor="middle" x="369.79" y="-91.51" font-family="Helvetica,sans-Serif" font-size="10.00">────────────</text>
<text xml:space="preserve" text-anchor="middle" x="369.79" y="-80.26" font-family="Helvetica,sans-Serif" font-size="10.00">{axid, orig_id,</text>
<text xml:space="preserve" text-anchor="middle" x="369.79" y="-69.01" font-family="Helvetica,sans-Serif" font-size="10.00">frag_idx,</text>
<text xml:space="preserve" text-anchor="middle" x="369.79" y="-57.76" font-family="Helvetica,sans-Serif" font-size="10.00">frag_total,</text>
<text xml:space="preserve" text-anchor="middle" x="369.79" y="-46.51" font-family="Helvetica,sans-Serif" font-size="10.00">data}</text>
</g>
<!-- dram_input&#45;&gt;tag_decoder -->
<g id="edge1" class="edge">
<title>dram_input&#45;&gt;tag_decoder</title>
<path fill="none" stroke="#f57f17" d="M134.68,-106.64C134.68,-106.64 290.68,-106.64 290.68,-106.64"/>
<polygon fill="#f57f17" stroke="#f57f17" points="290.68,-110.14 300.68,-106.64 290.68,-103.14 290.68,-110.14"/>
</g>
<!-- output_mux -->
<g id="node5" class="node">
<title>output_mux</title>
<path fill="#ffe0b2" stroke="#e65100" stroke-width="1.2" d="M1083.87,-157.04C1083.87,-157.04 934.59,-157.04 934.59,-157.04 928.59,-157.04 922.59,-151.04 922.59,-145.04 922.59,-145.04 922.59,-68.24 922.59,-68.24 922.59,-62.24 928.59,-56.24 934.59,-56.24 934.59,-56.24 1083.87,-56.24 1083.87,-56.24 1089.87,-56.24 1095.87,-62.24 1095.87,-68.24 1095.87,-68.24 1095.87,-145.04 1095.87,-145.04 1095.87,-151.04 1089.87,-157.04 1083.87,-157.04"/>
<text xml:space="preserve" text-anchor="middle" x="1009.23" y="-136.51" font-family="Helvetica,sans-Serif" font-size="10.00">Output Mux</text>
<text xml:space="preserve" text-anchor="middle" x="1009.23" y="-125.26" font-family="Helvetica,sans-Serif" font-size="10.00">────────────────</text>
<text xml:space="preserve" text-anchor="middle" x="1009.23" y="-114.01" font-family="Helvetica,sans-Serif" font-size="10.00">reads fragments</text>
<text xml:space="preserve" text-anchor="middle" x="1009.23" y="-102.76" font-family="Helvetica,sans-Serif" font-size="10.00">in frag_idx order</text>
<text xml:space="preserve" text-anchor="middle" x="1009.23" y="-91.51" font-family="Helvetica,sans-Serif" font-size="10.00">(0 .. frag_total&#45;1)</text>
<text xml:space="preserve" text-anchor="middle" x="1009.23" y="-80.26" font-family="Helvetica,sans-Serif" font-size="10.00">Concatenates</text>
<text xml:space="preserve" text-anchor="middle" x="1009.23" y="-69.01" font-family="Helvetica,sans-Serif" font-size="10.00">into burst</text>
</g>
<!-- dram_input&#45;&gt;output_mux -->
<g id="edge2" class="edge">
<title>dram_input&#45;&gt;output_mux</title>
<path fill="none" stroke="#ff6f00" stroke-dasharray="5,2" d="M67.15,-72.3C67.15,-48.47 67.15,-21 67.15,-21 67.15,-21 1009.15,-21 1009.15,-21 1009.15,-21 1009.15,-44.61 1009.15,-44.61"/>
<polygon fill="#ff6f00" stroke="#ff6f00" points="1009.15,-54.61 1004.65,-44.61 1009.15,-50.83 1009.15,-44.61 1009.15,-44.61 1009.15,-44.61 1009.15,-50.83 1013.65,-44.61 1009.15,-54.61"/>
<text xml:space="preserve" text-anchor="middle" x="498.06" y="-12.45" font-family="Helvetica,sans-Serif" font-size="9.00">frag_total = 1</text>
<text xml:space="preserve" text-anchor="middle" x="498.06" y="-1.95" font-family="Helvetica,sans-Serif" font-size="9.00">(no buffering)</text>
</g>
<!-- reassembly_tracker -->
<g id="node3" class="node">
<title>reassembly_tracker</title>
<path fill="#f3e5f5" stroke="#6a1b9a" stroke-width="1.2" d="M449.31,-352.02C449.31,-352.02 290.28,-352.02 290.28,-352.02 284.28,-352.02 278.28,-346.02 278.28,-340.02 278.28,-340.02 278.28,-251.25 278.28,-251.25 278.28,-245.25 284.28,-239.25 290.28,-239.25 290.28,-239.25 449.31,-239.25 449.31,-239.25 455.31,-239.25 461.31,-245.25 461.31,-251.25 461.31,-251.25 461.31,-340.02 461.31,-340.02 461.31,-346.02 455.31,-352.02 449.31,-352.02"/>
<text xml:space="preserve" text-anchor="middle" x="369.79" y="-336.76" font-family="Helvetica,sans-Serif" font-size="10.00">Reassembly Tracker</text>
<text xml:space="preserve" text-anchor="middle" x="369.79" y="-325.51" font-family="Helvetica,sans-Serif" font-size="10.00">─────────────────</text>
<text xml:space="preserve" text-anchor="middle" x="369.79" y="-314.26" font-family="Helvetica,sans-Serif" font-size="10.00">frag_count[axid]</text>
<text xml:space="preserve" text-anchor="middle" x="369.79" y="-303.01" font-family="Helvetica,sans-Serif" font-size="10.00">expected[axid]</text>
<text xml:space="preserve" text-anchor="middle" x="369.79" y="-291.76" font-family="Helvetica,sans-Serif" font-size="10.00">─────────────────</text>
<text xml:space="preserve" text-anchor="middle" x="369.79" y="-280.51" font-family="Helvetica,sans-Serif" font-size="10.00">expected =</text>
<text xml:space="preserve" text-anchor="middle" x="369.79" y="-269.26" font-family="Helvetica,sans-Serif" font-size="10.00">frag_total</text>
<text xml:space="preserve" text-anchor="middle" x="369.79" y="-258.01" font-family="Helvetica,sans-Serif" font-size="10.00">(latched on</text>
<text xml:space="preserve" text-anchor="middle" x="369.79" y="-246.76" font-family="Helvetica,sans-Serif" font-size="10.00">first frag)</text>
</g>
<!-- tag_decoder&#45;&gt;reassembly_tracker -->
<g id="edge4" class="edge">
<title>tag_decoder&#45;&gt;reassembly_tracker</title>
<path fill="none" stroke="#388e3c" d="M347.15,-174.87C347.15,-174.87 347.15,-227.19 347.15,-227.19"/>
<polygon fill="#388e3c" stroke="#388e3c" points="343.65,-227.19 347.15,-237.19 350.65,-227.19 343.65,-227.19"/>
<text xml:space="preserve" text-anchor="middle" x="328.4" y="-192.48" font-family="Helvetica,sans-Serif" font-size="9.00">frag_total</text>
</g>
<!-- tag_decoder&#45;&gt;reassembly_tracker -->
<g id="edge5" class="edge">
<title>tag_decoder&#45;&gt;reassembly_tracker</title>
<path fill="none" stroke="#388e3c" d="M392.15,-174.87C392.15,-174.87 392.15,-227.19 392.15,-227.19"/>
<polygon fill="#388e3c" stroke="#388e3c" points="388.65,-227.19 392.15,-237.19 395.65,-227.19 388.65,-227.19"/>
<text xml:space="preserve" text-anchor="middle" x="422.52" y="-192.48" font-family="Helvetica,sans-Serif" font-size="9.00">{axid, frag_idx}</text>
</g>
<!-- frag_buffer -->
<g id="node4" class="node">
<title>frag_buffer</title>
<path fill="#e0f2f7" stroke="#0277bd" stroke-width="1.2" d="M766.59,-142.64C766.59,-142.64 617.31,-142.64 617.31,-142.64 611.31,-142.64 605.31,-136.64 605.31,-130.64 605.31,-130.64 605.31,-82.64 605.31,-82.64 605.31,-76.64 611.31,-70.64 617.31,-70.64 617.31,-70.64 766.59,-70.64 766.59,-70.64 772.59,-70.64 778.59,-76.64 778.59,-82.64 778.59,-82.64 778.59,-130.64 778.59,-130.64 778.59,-136.64 772.59,-142.64 766.59,-142.64"/>
<text xml:space="preserve" text-anchor="middle" x="691.95" y="-119.64" font-family="Helvetica,sans-Serif" font-size="10.00">Fragment Buffer</text>
<text xml:space="preserve" text-anchor="middle" x="691.95" y="-108.39" font-family="Helvetica,sans-Serif" font-size="10.00">────────────────</text>
<text xml:space="preserve" text-anchor="middle" x="691.95" y="-97.14" font-family="Helvetica,sans-Serif" font-size="10.00">[axid][frag_idx]</text>
<text xml:space="preserve" text-anchor="middle" x="691.95" y="-85.89" font-family="Helvetica,sans-Serif" font-size="10.00">{data, valid}</text>
</g>
<!-- tag_decoder&#45;&gt;frag_buffer -->
<g id="edge3" class="edge">
<title>tag_decoder&#45;&gt;frag_buffer</title>
<path fill="none" stroke="#388e3c" d="M437.33,-106.64C437.33,-106.64 593.38,-106.64 593.38,-106.64"/>
<polygon fill="#388e3c" stroke="#388e3c" points="593.38,-110.14 603.38,-106.64 593.38,-103.14 593.38,-110.14"/>
<text xml:space="preserve" text-anchor="middle" x="487.6" y="-98.09" font-family="Helvetica,sans-Serif" font-size="9.00">write fragment</text>
</g>
<!-- reassembly_tracker&#45;&gt;output_mux -->
<g id="edge7" class="edge">
<title>reassembly_tracker&#45;&gt;output_mux</title>
<path fill="none" stroke="#ff6f00" stroke-dasharray="5,2" d="M449.15,-238.85C449.15,-197.91 449.15,-149.84 449.15,-149.84 449.15,-149.84 910.51,-149.84 910.51,-149.84"/>
<polygon fill="#ff6f00" stroke="#ff6f00" points="910.51,-153.34 920.51,-149.84 910.51,-146.34 910.51,-153.34"/>
<text xml:space="preserve" text-anchor="middle" x="594.45" y="-151.78" font-family="Helvetica,sans-Serif" font-size="9.00">burst_complete[axid]</text>
</g>
<!-- frag_buffer&#45;&gt;output_mux -->
<g id="edge6" class="edge">
<title>frag_buffer&#45;&gt;output_mux</title>
<path fill="none" stroke="#0277bd" d="M779.07,-106.64C779.07,-106.64 910.52,-106.64 910.52,-106.64"/>
<polygon fill="#0277bd" stroke="#0277bd" points="910.52,-110.14 920.52,-106.64 910.52,-103.14 910.52,-110.14"/>
</g>
<!-- rob_output -->
<g id="node6" class="node">
<title>rob_output</title>
<path fill="#e0f2f7" stroke="#0277bd" stroke-width="1.2" d="M1362.15,-151.77C1362.15,-151.77 1251.87,-151.77 1251.87,-151.77 1245.87,-151.77 1239.87,-145.77 1239.87,-139.77 1239.87,-139.77 1239.87,-73.5 1239.87,-73.5 1239.87,-67.5 1245.87,-61.5 1251.87,-61.5 1251.87,-61.5 1362.15,-61.5 1362.15,-61.5 1368.15,-61.5 1374.15,-67.5 1374.15,-73.5 1374.15,-73.5 1374.15,-139.77 1374.15,-139.77 1374.15,-145.77 1368.15,-151.77 1362.15,-151.77"/>
<text xml:space="preserve" text-anchor="middle" x="1307.01" y="-136.51" font-family="Helvetica,sans-Serif" font-size="10.00">ROB</text>
<text xml:space="preserve" text-anchor="middle" x="1307.01" y="-125.26" font-family="Helvetica,sans-Serif" font-size="10.00">(Tag Lookup &amp;</text>
<text xml:space="preserve" text-anchor="middle" x="1307.01" y="-114.01" font-family="Helvetica,sans-Serif" font-size="10.00">Fill)</text>
<text xml:space="preserve" text-anchor="middle" x="1307.01" y="-102.76" font-family="Helvetica,sans-Serif" font-size="10.00">────────────</text>
<text xml:space="preserve" text-anchor="middle" x="1307.01" y="-91.51" font-family="Helvetica,sans-Serif" font-size="10.00">{axid,</text>
<text xml:space="preserve" text-anchor="middle" x="1307.01" y="-80.26" font-family="Helvetica,sans-Serif" font-size="10.00">data_burst</text>
<text xml:space="preserve" text-anchor="middle" x="1307.01" y="-69.01" font-family="Helvetica,sans-Serif" font-size="10.00">[N*64&#45;1:0]}</text>
</g>
<!-- output_mux&#45;&gt;rob_output -->
<g id="edge8" class="edge">
<title>output_mux&#45;&gt;rob_output</title>
<path fill="none" stroke="#e65100" d="M1096.16,-106.64C1096.16,-106.64 1227.87,-106.64 1227.87,-106.64"/>
<polygon fill="#e65100" stroke="#e65100" points="1227.87,-110.14 1237.87,-106.64 1227.87,-103.14 1227.87,-110.14"/>
<text xml:space="preserve" text-anchor="middle" x="1140.64" y="-98.09" font-family="Helvetica,sans-Serif" font-size="9.00">data_burst</text>
</g>
</g>
</svg>
