<?xml version="1.0" encoding="UTF-8" standalone="no"?>
<!DOCTYPE svg PUBLIC "-//W3C//DTD SVG 1.1//EN"
 "http://www.w3.org/Graphics/SVG/1.1/DTD/svg11.dtd">
<!-- Generated by graphviz version 14.1.4 (0)
 -->
<!-- Title: ROB Pages: 1 -->
<svg width="1392pt" height="724pt"
 viewBox="14.00 14.00 1378.00 710.00" xmlns="http://www.w3.org/2000/svg" xmlns:xlink="http://www.w3.org/1999/xlink">
<g id="graph0" class="graph" transform="scale(1 1) rotate(0) translate(18.4 705.9)">
<title>ROB</title>
<polygon fill="white" stroke="none" points="-4,4 -4,-691.5 1359.6,-691.5 1359.6,4 -4,4"/>
<g id="clust1" class="cluster">
<title>cluster_queues</title>
<path fill="#fff3e0" stroke="#ff6f00" stroke-width="1.5" d="M463.8,-295.8C463.8,-295.8 945.8,-295.8 945.8,-295.8 951.8,-295.8 957.8,-301.8 957.8,-307.8 957.8,-307.8 957.8,-372.35 957.8,-372.35 957.8,-378.35 951.8,-384.35 945.8,-384.35 945.8,-384.35 463.8,-384.35 463.8,-384.35 457.8,-384.35 451.8,-378.35 451.8,-372.35 451.8,-372.35 451.8,-307.8 451.8,-307.8 451.8,-301.8 457.8,-295.8 463.8,-295.8"/>
<text xml:space="preserve" text-anchor="middle" x="504.05" y="-369.9" font-family="Latin Modern Roman" font-size="11.00" fill="#ff6f00">Per&#45;AXID Queues</text>
</g>
<!-- rcp -->
<g id="node1" class="node">
<title>rcp</title>
<path fill="#e0f2f7" stroke="#0277bd" stroke-width="1.2" d="M117.6,-656.4C117.6,-656.4 12,-656.4 12,-656.4 6,-656.4 0,-650.4 0,-644.4 0,-644.4 0,-603.6 0,-603.6 0,-597.6 6,-591.6 12,-591.6 12,-591.6 117.6,-591.6 117.6,-591.6 123.6,-591.6 129.6,-597.6 129.6,-603.6 129.6,-603.6 129.6,-644.4 129.6,-644.4 129.6,-650.4 123.6,-656.4 117.6,-656.4"/>
<text xml:space="preserve" text-anchor="middle" x="64.8" y="-629.3" font-family="Latin Modern Roman" font-size="11.00">Read Cmd Pool</text>
<text xml:space="preserve" text-anchor="middle" x="64.8" y="-613.55" font-family="Latin Modern Roman" font-size="11.00">(external)</text>
</g>
<!-- seqgen -->
<g id="node2" class="node">
<title>seqgen</title>
<path fill="#e8f5e9" stroke="#388e3c" stroke-width="1.2" d="M362.6,-656.4C362.6,-656.4 257,-656.4 257,-656.4 251,-656.4 245,-650.4 245,-644.4 245,-644.4 245,-603.6 245,-603.6 245,-597.6 251,-591.6 257,-591.6 257,-591.6 362.6,-591.6 362.6,-591.6 368.6,-591.6 374.6,-597.6 374.6,-603.6 374.6,-603.6 374.6,-644.4 374.6,-644.4 374.6,-650.4 368.6,-656.4 362.6,-656.4"/>
<text xml:space="preserve" text-anchor="middle" x="309.8" y="-629.3" font-family="Latin Modern Roman" font-size="11.00">Seq Num Generator</text>
<text xml:space="preserve" text-anchor="middle" x="309.8" y="-613.55" font-family="Latin Modern Roman" font-size="11.00">(per&#45;AXID counter)</text>
</g>
<!-- rcp&#45;&gt;seqgen -->
<g id="edge1" class="edge">
<title>rcp&#45;&gt;seqgen</title>
<path fill="none" stroke="#0277bd" d="M130.13,-624C130.13,-624 233.13,-624 233.13,-624"/>
<polygon fill="#0277bd" stroke="#0277bd" points="233.13,-627.5 243.13,-624 233.13,-620.5 233.13,-627.5"/>
<text xml:space="preserve" text-anchor="middle" x="162.51" y="-628.48" font-family="Latin Modern Roman" font-size="9.50">RD_CMD</text>
</g>
<!-- rdinst -->
<g id="node3" class="node">
<title>rdinst</title>
<path fill="#e0f2f7" stroke="#0277bd" stroke-width="1.2" d="M607.6,-656.4C607.6,-656.4 502,-656.4 502,-656.4 496,-656.4 490,-650.4 490,-644.4 490,-644.4 490,-603.6 490,-603.6 490,-597.6 496,-591.6 502,-591.6 502,-591.6 607.6,-591.6 607.6,-591.6 613.6,-591.6 619.6,-597.6 619.6,-603.6 619.6,-603.6 619.6,-644.4 619.6,-644.4 619.6,-650.4 613.6,-656.4 607.6,-656.4"/>
<text xml:space="preserve" text-anchor="middle" x="554.8" y="-629.3" font-family="Latin Modern Roman" font-size="11.00">Tag Insertion</text>
<text xml:space="preserve" text-anchor="middle" x="554.8" y="-613.55" font-family="Latin Modern Roman" font-size="11.00">(embed tag)</text>
</g>
<!-- seqgen&#45;&gt;rdinst -->
<g id="edge2" class="edge">
<title>seqgen&#45;&gt;rdinst</title>
<path fill="none" stroke="#388e3c" d="M375.13,-635C375.13,-635 478.13,-635 478.13,-635"/>
<polygon fill="#388e3c" stroke="#388e3c" points="478.13,-638.5 488.13,-635 478.13,-631.5 478.13,-638.5"/>
<text xml:space="preserve" text-anchor="middle" x="443.51" y="-625.98" font-family="Latin Modern Roman" font-size="9.50">{AXID,seqnum}</text>
</g>
<!-- q0 -->
<g id="node5" class="node">
<title>q0</title>
<path fill="#ffccbc" stroke="#d84315" stroke-width="1.2" d="M569.6,-360.6C569.6,-360.6 464,-360.6 464,-360.6 458,-360.6 452,-354.6 452,-348.6 452,-348.6 452,-307.8 452,-307.8 452,-301.8 458,-295.8 464,-295.8 464,-295.8 569.6,-295.8 569.6,-295.8 575.6,-295.8 581.6,-301.8 581.6,-307.8 581.6,-307.8 581.6,-348.6 581.6,-348.6 581.6,-354.6 575.6,-360.6 569.6,-360.6"/>
<text xml:space="preserve" text-anchor="middle" x="516.8" y="-341.38" font-family="Latin Modern Roman" font-size="11.00">AXID=0</text>
<text xml:space="preserve" text-anchor="middle" x="516.8" y="-325.63" font-family="Latin Modern Roman" font-size="11.00">Queue</text>
<text xml:space="preserve" text-anchor="middle" x="516.8" y="-309.88" font-family="Latin Modern Roman" font-size="11.00">(slots 0–3)</text>
</g>
<!-- seqgen&#45;&gt;q0 -->
<g id="edge4" class="edge">
<title>seqgen&#45;&gt;q0</title>
<path fill="none" stroke="#388e3c" stroke-dasharray="5,2" d="M374.9,-613C419.64,-613 471,-613 471,-613 471,-613 471,-455.67 471,-395.6"/>
<polygon fill="#388e3c" stroke="#388e3c" points="474.5,-395.86 471,-385.86 467.5,-395.86 474.5,-395.86"/>
<text xml:space="preserve" text-anchor="middle" x="426" y="-556.82" font-family="Latin Modern Roman" font-size="9.50">alloc {AXID,seqnum}</text>
</g>
<!-- fifo_point -->
<g id="node4" class="node">
<title>fifo_point</title>
<ellipse fill="lightblue" stroke="steelblue" stroke-width="1.2" cx="1168.8" cy="-624" rx="0.36" ry="0.36"/>
</g>
<!-- rdinst&#45;&gt;fifo_point -->
<g id="edge3" class="edge">
<title>rdinst&#45;&gt;fifo_point</title>
<path fill="none" stroke="#0277bd" d="M554.8,-656.79C554.8,-666.22 554.8,-674 554.8,-674 554.8,-674 1168.8,-674 1168.8,-674 1168.8,-674 1168.8,-636.38 1168.8,-636.38"/>
<polygon fill="#0277bd" stroke="#0277bd" points="1172.3,-636.38 1168.8,-626.38 1165.3,-636.38 1172.3,-636.38"/>
<text xml:space="preserve" text-anchor="middle" x="835.63" y="-678.48" font-family="Latin Modern Roman" font-size="9.50">tagged RD_CMD</text>
</g>
<!-- q1 -->
<g id="node6" class="node">
<title>q1</title>
<path fill="#ffe0b2" stroke="#e65100" stroke-width="1.2" d="M757.6,-360.6C757.6,-360.6 652,-360.6 652,-360.6 646,-360.6 640,-354.6 640,-348.6 640,-348.6 640,-307.8 640,-307.8 640,-301.8 646,-295.8 652,-295.8 652,-295.8 757.6,-295.8 757.6,-295.8 763.6,-295.8 769.6,-301.8 769.6,-307.8 769.6,-307.8 769.6,-348.6 769.6,-348.6 769.6,-354.6 763.6,-360.6 757.6,-360.6"/>
<text xml:space="preserve" text-anchor="middle" x="704.8" y="-341.38" font-family="Latin Modern Roman" font-size="11.00">AXID=1</text>
<text xml:space="preserve" text-anchor="middle" x="704.8" y="-325.63" font-family="Latin Modern Roman" font-size="11.00">Queue</text>
<text xml:space="preserve" text-anchor="middle" x="704.8" y="-309.88" font-family="Latin Modern Roman" font-size="11.00">(slots 0–3)</text>
</g>
<!-- retire -->
<g id="node10" class="node">
<title>retire</title>
<path fill="#cfd8dc" stroke="#455a64" stroke-width="1.2" d="M1098.6,-64.8C1098.6,-64.8 993,-64.8 993,-64.8 987,-64.8 981,-58.8 981,-52.8 981,-52.8 981,-12 981,-12 981,-6 987,0 993,0 993,0 1098.6,0 1098.6,0 1104.6,0 1110.6,-6 1110.6,-12 1110.6,-12 1110.6,-52.8 1110.6,-52.8 1110.6,-58.8 1104.6,-64.8 1098.6,-64.8"/>
<text xml:space="preserve" text-anchor="middle" x="1045.8" y="-37.7" font-family="Latin Modern Roman" font-size="11.00">Retirement Logic</text>
<text xml:space="preserve" text-anchor="middle" x="1045.8" y="-21.95" font-family="Latin Modern Roman" font-size="11.00">(per&#45;AXID HEAD)</text>
</g>
<!-- q1&#45;&gt;retire -->
<g id="edge7" class="edge">
<title>q1&#45;&gt;retire</title>
<path fill="none" stroke="#455a64" d="M704.8,-295.37C704.8,-218.25 704.8,-32 704.8,-32 704.8,-32 968.94,-32 968.94,-32"/>
<polygon fill="#455a64" stroke="#455a64" points="968.94,-35.5 978.94,-32 968.94,-28.5 968.94,-35.5"/>
<text xml:space="preserve" text-anchor="middle" x="660.94" y="-49.98" font-family="Latin Modern Roman" font-size="9.50">queue[AXID][HEAD].</text>
<text xml:space="preserve" text-anchor="middle" x="660.94" y="-36.48" font-family="Latin Modern Roman" font-size="9.50">{valid,data}</text>
</g>
<!-- qn -->
<g id="node7" class="node">
<title>qn</title>
<path fill="#f5f5f5" stroke="#666666" stroke-width="1.2" d="M945.6,-360.6C945.6,-360.6 840,-360.6 840,-360.6 834,-360.6 828,-354.6 828,-348.6 828,-348.6 828,-307.8 828,-307.8 828,-301.8 834,-295.8 840,-295.8 840,-295.8 945.6,-295.8 945.6,-295.8 951.6,-295.8 957.6,-301.8 957.6,-307.8 957.6,-307.8 957.6,-348.6 957.6,-348.6 957.6,-354.6 951.6,-360.6 945.6,-360.6"/>
<text xml:space="preserve" text-anchor="middle" x="892.8" y="-341.38" font-family="Latin Modern Roman" font-size="11.00">AXID=N</text>
<text xml:space="preserve" text-anchor="middle" x="892.8" y="-325.63" font-family="Latin Modern Roman" font-size="11.00">Queue</text>
<text xml:space="preserve" text-anchor="middle" x="892.8" y="-309.88" font-family="Latin Modern Roman" font-size="11.00">(slots 0–3)</text>
</g>
<!-- dram -->
<g id="node8" class="node">
<title>dram</title>
<path fill="#fff8e1" stroke="#f57f17" stroke-width="1.2" d="M795.6,-656.4C795.6,-656.4 690,-656.4 690,-656.4 684,-656.4 678,-650.4 678,-644.4 678,-644.4 678,-603.6 678,-603.6 678,-597.6 684,-591.6 690,-591.6 690,-591.6 795.6,-591.6 795.6,-591.6 801.6,-591.6 807.6,-597.6 807.6,-603.6 807.6,-603.6 807.6,-644.4 807.6,-644.4 807.6,-650.4 801.6,-656.4 795.6,-656.4"/>
<text xml:space="preserve" text-anchor="middle" x="742.8" y="-629.3" font-family="Latin Modern Roman" font-size="11.00">Read Data Path</text>
<text xml:space="preserve" text-anchor="middle" x="742.8" y="-613.55" font-family="Latin Modern Roman" font-size="11.00">(from DRAM)</text>
</g>
<!-- fill -->
<g id="node9" class="node">
<title>fill</title>
<path fill="#f3e5f5" stroke="#6a1b9a" stroke-width="1.2" d="M1098.6,-656.4C1098.6,-656.4 993,-656.4 993,-656.4 987,-656.4 981,-650.4 981,-644.4 981,-644.4 981,-603.6 981,-603.6 981,-597.6 987,-591.6 993,-591.6 993,-591.6 1098.6,-591.6 1098.6,-591.6 1104.6,-591.6 1110.6,-597.6 1110.6,-603.6 1110.6,-603.6 1110.6,-644.4 1110.6,-644.4 1110.6,-650.4 1104.6,-656.4 1098.6,-656.4"/>
<text xml:space="preserve" text-anchor="middle" x="1045.8" y="-629.3" font-family="Latin Modern Roman" font-size="11.00">Tag Lookup &amp; Fill</text>
<text xml:space="preserve" text-anchor="middle" x="1045.8" y="-613.55" font-family="Latin Modern Roman" font-size="11.00">(decode &amp; fill)</text>
</g>
<!-- dram&#45;&gt;fill -->
<g id="edge5" class="edge">
<title>dram&#45;&gt;fill</title>
<path fill="none" stroke="#f57f17" d="M808.17,-624C808.17,-624 969.03,-624 969.03,-624"/>
<polygon fill="#f57f17" stroke="#f57f17" points="969.03,-627.5 979.03,-624 969.03,-620.5 969.03,-627.5"/>
<text xml:space="preserve" text-anchor="middle" x="866.1" y="-628.48" font-family="Latin Modern Roman" font-size="9.50">{tag,data}</text>
</g>
<!-- fill&#45;&gt;q0 -->
<g id="edge6" class="edge">
<title>fill&#45;&gt;q0</title>
<path fill="none" stroke="#6a1b9a" stroke-dasharray="5,2" d="M1024.2,-591.15C1024.2,-547.55 1024.2,-476 1024.2,-476 1024.2,-476 535.8,-476 535.8,-476 535.8,-476 535.8,-426.18 535.8,-395.68"/>
<polygon fill="#6a1b9a" stroke="#6a1b9a" points="539.3,-395.86 535.8,-385.86 532.3,-395.86 539.3,-395.86"/>
<text xml:space="preserve" text-anchor="middle" x="735.92" y="-493.97" font-family="Latin Modern Roman" font-size="9.50">write</text>
<text xml:space="preserve" text-anchor="middle" x="735.92" y="-480.47" font-family="Latin Modern Roman" font-size="9.50">{AXID,seqnum,data,valid=1}</text>
</g>
<!-- fill&#45;&gt;retire -->
<g id="edge8" class="edge">
<title>fill&#45;&gt;retire</title>
<path fill="none" stroke="#6a1b9a" d="M1067.4,-591.35C1067.4,-591.35 1067.4,-76.83 1067.4,-76.83"/>
<polygon fill="#6a1b9a" stroke="#6a1b9a" points="1070.9,-76.83 1067.4,-66.83 1063.9,-76.83 1070.9,-76.83"/>
<text xml:space="preserve" text-anchor="middle" x="1047.9" y="-352.06" font-family="Latin Modern Roman" font-size="9.50">decoded</text>
<text xml:space="preserve" text-anchor="middle" x="1047.9" y="-338.56" font-family="Latin Modern Roman" font-size="9.50">addr</text>
</g>
<!-- axiport -->
<g id="node11" class="node">
<title>axiport</title>
<path fill="#e0f2f7" stroke="#0277bd" stroke-width="1.2" d="M1343.6,-64.8C1343.6,-64.8 1238,-64.8 1238,-64.8 1232,-64.8 1226,-58.8 1226,-52.8 1226,-52.8 1226,-12 1226,-12 1226,-6 1232,0 1238,0 1238,0 1343.6,0 1343.6,0 1349.6,0 1355.6,-6 1355.6,-12 1355.6,-12 1355.6,-52.8 1355.6,-52.8 1355.6,-58.8 1349.6,-64.8 1343.6,-64.8"/>
<text xml:space="preserve" text-anchor="middle" x="1290.8" y="-37.7" font-family="Latin Modern Roman" font-size="11.00">AXI Read Port</text>
<text xml:space="preserve" text-anchor="middle" x="1290.8" y="-21.95" font-family="Latin Modern Roman" font-size="11.00">(external)</text>
</g>
<!-- retire&#45;&gt;axiport -->
<g id="edge9" class="edge">
<title>retire&#45;&gt;axiport</title>
<path fill="none" stroke="#455a64" d="M1111.13,-32C1111.13,-32 1214.13,-32 1214.13,-32"/>
<polygon fill="#455a64" stroke="#455a64" points="1214.13,-35.5 1224.13,-32 1214.13,-28.5 1214.13,-35.5"/>
<text xml:space="preserve" text-anchor="middle" x="1144.63" y="-36.48" font-family="Latin Modern Roman" font-size="9.50">in&#45;order</text>
</g>
</g>
</svg>
